<?xml version="1.0" encoding="utf-8"?>
<!-- Generator: Adobe Illustrator 23.0.6, SVG Export Plug-In . SVG Version: 6.00 Build 0)  -->
<svg version="1.1" id="图层_1" xmlns="http://www.w3.org/2000/svg" xmlns:xlink="http://www.w3.org/1999/xlink" x="0px" y="0px"
	 viewBox="0 0 100 100" style="enable-background:new 0 0 100 100;" xml:space="preserve">
<style type="text/css">
	.st0{fill:#62428F;}
	.st1{fill:#483069;}
	.st2{fill:#7C53B5;}
	.st3{fill:#A871F5;}
	.st4{fill:#744DA9;}
	.st5{fill:#FFFFFF;}
</style>
<title>画板 1</title>
<path class="st0" d="M67.6,72.7c0,1.4,1.1,2.5,2.5,2.5c0,0,0,0,0,0h22.7c1.4,0,2.5-1.1,2.5-2.5l0,0V17.2c0-1.4-1.1-2.5-2.5-2.5
	c0,0,0,0,0,0H70.2c-1.4,0-2.5,1.1-2.5,2.5c0,0,0,0,0,0V72.7z"/>
<path class="st1" d="M67.6,17.2v16l10.1,1.7L82,34v-8.5L68.4,15.5C67.9,15.9,67.6,16.6,67.6,17.2z"/>
<path class="st2" d="M80.2,24.8H39.9v60.5h40.3c1.4,0,2.5-1.1,2.5-2.5c0,0,0,0,0,0V27.3C82.8,25.9,81.6,24.8,80.2,24.8L80.2,24.8z"
	/>
<path class="st3" d="M39.9,60.1h35.3v5H39.9V60.1z M39.9,50h35.3v5H39.9V50z M39.9,34.9h35.3V45H39.9V34.9z M39.9,70.2h35.3v5H39.9
	V70.2z"/>
<path class="st4" d="M57.6,95.4L4.6,85.3V14.7L57.6,4.6V95.4z"/>
<path class="st5" d="M18.8,32.4h12.3c7.3,0,13.1,2,13.1,8.8c0,3.1-1.8,6.5-4.6,7.6v0.2c3.8,0.9,6.5,4.4,6.2,8.3
	c0,7.3-6,10.4-13.8,10.4H18.8L18.8,32.4z M30.8,46.4c3.6,0,5.2-1.6,5.2-4c0-2.4-1.7-3.6-5.2-3.6h-3.5v7.5H30.8z M31.5,61.2
	c4.1,0,6.2-1.5,6.2-4.5s-2-4.1-6.2-4.1h-4.2v8.6H31.5z"/>
</svg>
