<svg id="图层_1" data-name="图层 1" xmlns="http://www.w3.org/2000/svg" viewBox="0 0 100 100"><defs><style>.cls-1{fill:#62428f;}.cls-2{fill:#483069;}.cls-3{fill:#7c53b5;}.cls-4{fill:#a871f5;}.cls-5{fill:#744da9;}.cls-6{fill:#fff;}</style></defs><title>画板 1</title><path class="cls-1" d="M64.58,68.75a2.08,2.08,0,0,0,2.09,2.08H85.42a2.08,2.08,0,0,0,2.08-2.08V22.92a2.08,2.08,0,0,0-2.08-2.09H66.67a2.08,2.08,0,0,0-2.09,2.09Z"/><path class="cls-2" d="M64.58,22.92V36.11l8.34,1.39,3.51-.7v-7L65.2,21.44A2.07,2.07,0,0,0,64.58,22.92Z"/><path class="cls-3" d="M75,29.17H41.67v50H75a2.08,2.08,0,0,0,2.08-2.09V31.25A2.08,2.08,0,0,0,75,29.17Z"/><path class="cls-4" d="M41.67,58.33H70.83V62.5H41.67Zm0-8.33H70.83v4.17H41.67Zm0-12.5H70.83v8.33H41.67Zm0,29.17H70.83v4.16H41.67Z"/><path class="cls-5" d="M56.25,87.5,12.5,79.17V20.83L56.25,12.5Z"/><path class="cls-6" d="M24.22,35.42H34.4c6,0,10.84,1.64,10.84,7.24,0,2.58-1.45,5.4-3.79,6.3v.16A6.61,6.61,0,0,1,46.61,56c0,6-5,8.61-11.39,8.61h-11ZM34.12,47c3,0,4.31-1.29,4.31-3.28s-1.37-2.94-4.31-2.94H31.23V47Zm.59,12.22c3.37,0,5.09-1.21,5.09-3.72s-1.68-3.37-5.09-3.37H31.23v7.09Z"/></svg>